<mxfile host="app.diagrams.net" modified="2020-12-12T03:31:38.241Z" agent="5.0 (Windows NT 10.0; Win64; x64) AppleWebKit/537.36 (KHTML, like Gecko) Chrome/87.0.4280.88 Safari/537.36" etag="NqC6lRNja_fSObLm1qxp" version="13.11.0" type="github">
  <diagram id="WbJJBcycbd69fMWP_b3H" name="Page-1">
    <mxGraphModel dx="1552" dy="811" grid="1" gridSize="10" guides="1" tooltips="1" connect="1" arrows="1" fold="1" page="1" pageScale="1" pageWidth="1920" pageHeight="1200" math="0" shadow="0">
      <root>
        <mxCell id="0" />
        <mxCell id="1" parent="0" />
        <mxCell id="zCOhhn2yF9q3riv1P9lX-1" value="&lt;font face=&quot;Times New Roman&quot; size=&quot;1&quot;&gt;&lt;b style=&quot;font-size: 35px&quot;&gt;Pusat&lt;/b&gt;&lt;/font&gt;" style="ellipse;whiteSpace=wrap;html=1;fillColor=#f5f5f5;strokeColor=#666666;fontColor=#333333;" vertex="1" parent="1">
          <mxGeometry x="695" y="80" width="180" height="160" as="geometry" />
        </mxCell>
        <mxCell id="zCOhhn2yF9q3riv1P9lX-3" value="&lt;font style=&quot;font-size: 22px&quot;&gt;Standard&lt;/font&gt;" style="rounded=0;whiteSpace=wrap;html=1;fillColor=#fff2cc;strokeColor=#d6b656;" vertex="1" parent="1">
          <mxGeometry x="160" y="440" width="120" height="100" as="geometry" />
        </mxCell>
        <mxCell id="zCOhhn2yF9q3riv1P9lX-4" value="&lt;font style=&quot;font-size: 22px&quot;&gt;Desain/rancangan data&lt;/font&gt;" style="rounded=0;whiteSpace=wrap;html=1;fillColor=#f8cecc;strokeColor=#b85450;" vertex="1" parent="1">
          <mxGeometry x="350" y="440" width="190" height="120" as="geometry" />
        </mxCell>
        <mxCell id="zCOhhn2yF9q3riv1P9lX-5" value="&lt;font style=&quot;font-size: 22px&quot;&gt;Pengembangan aplikasi&lt;/font&gt;" style="rounded=0;whiteSpace=wrap;html=1;fillColor=#fff2cc;strokeColor=#d6b656;" vertex="1" parent="1">
          <mxGeometry x="600" y="440" width="190" height="120" as="geometry" />
        </mxCell>
        <mxCell id="zCOhhn2yF9q3riv1P9lX-6" value="&lt;font style=&quot;font-size: 22px&quot;&gt;Keputusan Pemakai&lt;/font&gt;" style="rounded=0;whiteSpace=wrap;html=1;fillColor=#dae8fc;strokeColor=#6c8ebf;" vertex="1" parent="1">
          <mxGeometry x="850" y="440" width="185" height="110" as="geometry" />
        </mxCell>
        <mxCell id="zCOhhn2yF9q3riv1P9lX-7" value="&lt;font style=&quot;font-size: 22px&quot;&gt;Pemilihan H/W,S/W&lt;/font&gt;" style="rounded=0;whiteSpace=wrap;html=1;fillColor=#ffcccc;strokeColor=#36393d;" vertex="1" parent="1">
          <mxGeometry x="1090" y="435" width="150" height="120" as="geometry" />
        </mxCell>
        <mxCell id="zCOhhn2yF9q3riv1P9lX-8" value="&lt;font style=&quot;font-size: 22px&quot;&gt;Keputusan Arsitektur&lt;/font&gt;" style="rounded=0;whiteSpace=wrap;html=1;fillColor=#f9f7ed;strokeColor=#36393d;" vertex="1" parent="1">
          <mxGeometry x="1320" y="430" width="140" height="120" as="geometry" />
        </mxCell>
        <mxCell id="zCOhhn2yF9q3riv1P9lX-10" value="" style="endArrow=none;html=1;entryX=-0.019;entryY=0.575;entryDx=0;entryDy=0;entryPerimeter=0;exitX=0.392;exitY=0.005;exitDx=0;exitDy=0;exitPerimeter=0;strokeWidth=5;" edge="1" parent="1" source="zCOhhn2yF9q3riv1P9lX-3" target="zCOhhn2yF9q3riv1P9lX-1">
          <mxGeometry width="50" height="50" relative="1" as="geometry">
            <mxPoint x="570" y="500" as="sourcePoint" />
            <mxPoint x="810" y="440" as="targetPoint" />
          </mxGeometry>
        </mxCell>
        <mxCell id="zCOhhn2yF9q3riv1P9lX-11" value="" style="endArrow=none;html=1;entryX=0.083;entryY=0.813;entryDx=0;entryDy=0;entryPerimeter=0;exitX=0.5;exitY=0;exitDx=0;exitDy=0;strokeWidth=6;" edge="1" parent="1" source="zCOhhn2yF9q3riv1P9lX-4">
          <mxGeometry width="50" height="50" relative="1" as="geometry">
            <mxPoint x="217.03999999999996" y="450.5" as="sourcePoint" />
            <mxPoint x="719.94" y="220.07999999999993" as="targetPoint" />
          </mxGeometry>
        </mxCell>
        <mxCell id="zCOhhn2yF9q3riv1P9lX-12" value="" style="endArrow=none;html=1;entryX=0.314;entryY=0.988;entryDx=0;entryDy=0;entryPerimeter=0;strokeWidth=5;" edge="1" parent="1" source="zCOhhn2yF9q3riv1P9lX-5" target="zCOhhn2yF9q3riv1P9lX-1">
          <mxGeometry width="50" height="50" relative="1" as="geometry">
            <mxPoint x="455" y="450" as="sourcePoint" />
            <mxPoint x="729.94" y="230.07999999999993" as="targetPoint" />
          </mxGeometry>
        </mxCell>
        <mxCell id="zCOhhn2yF9q3riv1P9lX-13" value="" style="endArrow=none;html=1;entryX=0.731;entryY=0.941;entryDx=0;entryDy=0;entryPerimeter=0;exitX=0.5;exitY=0;exitDx=0;exitDy=0;strokeWidth=5;" edge="1" parent="1" source="zCOhhn2yF9q3riv1P9lX-6" target="zCOhhn2yF9q3riv1P9lX-1">
          <mxGeometry width="50" height="50" relative="1" as="geometry">
            <mxPoint x="717.947464874771" y="450" as="sourcePoint" />
            <mxPoint x="761.52" y="248.07999999999993" as="targetPoint" />
          </mxGeometry>
        </mxCell>
        <mxCell id="zCOhhn2yF9q3riv1P9lX-14" value="" style="endArrow=none;html=1;entryX=0.964;entryY=0.744;entryDx=0;entryDy=0;entryPerimeter=0;strokeWidth=5;" edge="1" parent="1" target="zCOhhn2yF9q3riv1P9lX-1">
          <mxGeometry width="50" height="50" relative="1" as="geometry">
            <mxPoint x="1160" y="430" as="sourcePoint" />
            <mxPoint x="874.9999999999999" y="179.99999999999994" as="targetPoint" />
          </mxGeometry>
        </mxCell>
        <mxCell id="zCOhhn2yF9q3riv1P9lX-15" value="" style="endArrow=none;html=1;entryX=0.731;entryY=0.941;entryDx=0;entryDy=0;entryPerimeter=0;strokeWidth=5;exitX=0.5;exitY=0;exitDx=0;exitDy=0;" edge="1" parent="1" source="zCOhhn2yF9q3riv1P9lX-8">
          <mxGeometry width="50" height="50" relative="1" as="geometry">
            <mxPoint x="1160" y="400" as="sourcePoint" />
            <mxPoint x="875" y="150" as="targetPoint" />
          </mxGeometry>
        </mxCell>
      </root>
    </mxGraphModel>
  </diagram>
</mxfile>
